<svg xmlns="http://www.w3.org/2000/svg" width="35" height="35" viewBox="0 0 35 35"><g fill-rule="evenodd"><path d="M0 0h35v35H0z"/><g fill="#FFF" fill-rule="nonzero"><path d="M18 9.03c2.89 0 3.233.01 4.375.06 1.055.045 1.628.213 2.01.355.47.165.896.43 1.246.773.36.334.636.74.81 1.19.148.364.324.91.372 1.918.052 1.09.063 1.417.063 4.176 0 2.759-.01 3.085-.063 4.175-.048 1.007-.224 1.555-.372 1.919-.18.445-.457.85-.81 1.188a3.61 3.61 0 0 1-1.245.773c-.381.141-.955.31-2.01.355-1.141.05-1.484.06-4.374.06-2.89 0-3.233-.01-4.374-.06-1.056-.046-1.629-.214-2.01-.355a3.371 3.371 0 0 1-1.246-.773 3.189 3.189 0 0 1-.81-1.19c-.149-.364-.325-.911-.373-1.919-.052-1.09-.063-1.416-.063-4.175 0-2.76.011-3.086.063-4.175.048-1.008.224-1.555.373-1.92.173-.448.45-.855.81-1.189.35-.343.775-.607 1.246-.773.381-.141.954-.31 2.01-.355 1.141-.05 1.483-.06 4.374-.06L18 9.028zm.002-1.864c-2.94 0-3.309.012-4.463.062-1.155.05-1.941.226-2.629.482a5.339 5.339 0 0 0-1.918 1.191 5.05 5.05 0 0 0-1.248 1.831c-.268.657-.45 1.408-.503 2.508-.053 1.1-.065 1.454-.065 4.26s.012 3.158.065 4.26c.053 1.102.235 1.851.503 2.508a5.05 5.05 0 0 0 1.248 1.83c.541.526 1.196.932 1.918 1.192.688.256 1.476.43 2.628.48 1.152.05 1.523.063 4.463.063 2.94 0 3.309-.012 4.463-.063 1.155-.05 1.939-.224 2.626-.48a5.565 5.565 0 0 0 1.918-1.192c.545-.52.97-1.144 1.248-1.83.268-.657.451-1.409.504-2.509.052-1.1.065-1.454.065-4.26s-.013-3.158-.065-4.26c-.053-1.102-.236-1.85-.504-2.507a5.05 5.05 0 0 0-1.248-1.83 5.339 5.339 0 0 0-1.917-1.19c-.688-.258-1.476-.432-2.628-.482-1.152-.05-1.523-.063-4.463-.063l.002-.001z"/><path d="M18 12.194c-1.1 0-2.174.311-3.088.894a5.367 5.367 0 0 0-2.047 2.382c-.421.969-.531 2.036-.317 3.065a5.236 5.236 0 0 0 1.522 2.717 5.646 5.646 0 0 0 2.846 1.452c1.078.204 2.195.1 3.211-.302a5.511 5.511 0 0 0 2.495-1.954 5.096 5.096 0 0 0 .514-4.978 5.296 5.296 0 0 0-1.206-1.722 5.582 5.582 0 0 0-1.803-1.15A5.789 5.789 0 0 0 18 12.194zm0 8.751a3.733 3.733 0 0 1-2.005-.58 3.485 3.485 0 0 1-1.33-1.547 3.3 3.3 0 0 1-.205-1.99 3.4 3.4 0 0 1 .988-1.764 3.666 3.666 0 0 1 1.848-.943 3.77 3.77 0 0 1 2.085.196c.66.26 1.223.702 1.62 1.269.397.566.608 1.233.608 1.914 0 .914-.38 1.79-1.057 2.436A3.699 3.699 0 0 1 18 20.946zm6.697-8.084a1.2 1.2 0 0 0 0-1.754 1.343 1.343 0 0 0-1.837 0 1.2 1.2 0 0 0 0 1.754c.507.484 1.33.484 1.837 0z"/></g></g></svg>
