<svg width="92" height="35" xmlns="http://www.w3.org/2000/svg" viewBox="0 0 92 35"><defs><path id="a" d="M0 0h20v18H0z"/></defs><g fill="none" fill-rule="evenodd"><path id="button" d="M0 0h92v35H0z" fill="#231F20"/><text font-family="Roboto Bold, Roboto" font-size="15" font-weight="bold" fill="#FFF"><tspan x="14.407" y="22">Print</tspan></text><g transform="translate(57 8)"><mask id="b" fill="#fff"><use xlink:href="#a"/></mask><path d="M15 0H5c-.55 0-1 .45-1 1v2c0 .55.45 1 1 1h10c.55 0 1-.45 1-1V1c0-.55-.45-1-1-1m2 9c-.55 0-1-.45-1-1s.45-1 1-1 1 .45 1 1-.45 1-1 1m-4 7H7c-.55 0-1-.45-1-1v-4h8v4c0 .55-.45 1-1 1m4-11H3C1.34 5 0 6.34 0 8v4c0 1.1.9 2 2 2h2v2c0 1.1.9 2 2 2h8c1.1 0 2-.9 2-2v-2h2c1.1 0 2-.9 2-2V8c0-1.66-1.34-3-3-3" fill="#FFF" mask="url(#b)"/></g></g></svg>
