<svg xmlns="http://www.w3.org/2000/svg" width="35" height="35" viewBox="0 0 35 35"><g fill-rule="evenodd"><path d="M0 0h35v35H0z"/><path fill="#FFF" fill-rule="nonzero" d="M26 12.775c-.626.301-1.298.505-2.003.597a3.76 3.76 0 0 0 1.533-2.095c-.674.434-1.42.75-2.215.919C22.68 11.46 21.773 11 20.771 11c-1.926 0-3.488 1.695-3.488 3.786 0 .297.03.586.09.863-2.898-.158-5.468-1.665-7.188-3.956-.3.56-.473 1.21-.473 1.904 0 1.314.616 2.472 1.551 3.151a3.27 3.27 0 0 1-1.58-.473v.048c0 1.834 1.202 3.364 2.797 3.712a3.226 3.226 0 0 1-1.574.065c.443 1.504 1.732 2.6 3.257 2.63-1.193 1.016-2.697 1.62-4.33 1.62-.282 0-.56-.017-.833-.052C10.543 25.373 12.377 26 14.346 26c6.414 0 9.923-5.77 9.923-10.774 0-.164-.004-.327-.01-.49A7.447 7.447 0 0 0 26 12.776z"/></g></svg>
