<svg xmlns="http://www.w3.org/2000/svg" width="35" height="35" viewBox="0 0 35 35"><g fill-rule="evenodd"><path d="M0 0h35v35H0z"/><g fill="#FFF"><path d="M16.385 5h-1.283l-.863 3.5-.9-3.5H12c.266.827.545 1.655.81 2.482.408 1.244.662 2.181.775 2.818v3.607h1.267V10.3L16.385 5zm3.388 6.76V9.434c0-.708-.117-1.226-.355-1.566-.315-.454-.762-.678-1.335-.678-.569 0-1.013.224-1.331.678-.242.336-.36.853-.36 1.566v2.326c0 .704.118 1.23.36 1.561.318.454.762.679 1.33.679.574 0 1.021-.23 1.336-.679.238-.33.355-.857.355-1.561zm-1.146.224c0 .616-.177.921-.544.921-.367 0-.545-.305-.545-.92V9.191c0-.615.178-.92.545-.92.367 0 .544.305.544.92v2.792zM24 13.911V7.27h-1.146v5.074c-.254.378-.492.564-.722.564-.153 0-.242-.097-.27-.28-.016-.038-.016-.186-.016-.466V7.27h-1.141v5.25c0 .466.04.784.1.988.113.335.367.492.739.492.415 0 .85-.267 1.306-.815v.726H24z" opacity=".3"/><path d="M16.38 5h-1.282l-.863 3.496-.9-3.496H12c.266.827.545 1.655.815 2.482.407 1.244.661 2.177.774 2.818v3.607h1.267V10.3L16.38 5zm3.389 6.76V9.434c0-.708-.117-1.226-.355-1.566-.319-.454-.763-.678-1.335-.678-.57 0-1.017.229-1.331.678-.242.336-.36.853-.36 1.566v2.326c0 .704.118 1.226.36 1.561.318.454.762.679 1.33.679.573 0 1.017-.23 1.336-.679.242-.335.355-.857.355-1.561zm-1.142.224c0 .616-.177.921-.544.921-.367 0-.545-.305-.545-.92V9.191c0-.615.178-.92.545-.92.367 0 .544.305.544.92v2.792zM24 13.907V7.27h-1.146v5.075c-.254.378-.492.565-.722.565-.153 0-.242-.094-.27-.28-.012-.039-.012-.187-.012-.467V7.27H20.71v5.25c0 .466.036.784.1.988.113.335.367.492.739.492.415 0 .85-.267 1.306-.815v.726H24v-.004zM24.504 21c-.336 0-.504.201-.504.6v.4h1v-.4c.004-.399-.164-.6-.496-.6zm-3.97 0c-.175 0-.355.102-.534.314v4.367c.18.217.359.319.534.319.31 0 .466-.32.466-.967v-3.057c0-.643-.156-.976-.466-.976z"/><path d="M27.655 18.09c-.245-.992-1.116-1.723-2.163-1.832-2.481-.257-4.989-.261-7.488-.257-2.499 0-5.01 0-7.488.257-1.047.109-1.917.84-2.163 1.833C8.004 19.506 8 21.045 8 22.5c0 1.455 0 2.998.349 4.41.246.992 1.112 1.723 2.163 1.832 2.482.257 4.99.261 7.488.257 2.499 0 5.01 0 7.488-.257 1.047-.109 1.917-.84 2.163-1.833C28 25.494 28 23.955 28 22.5c0-1.455.004-2.994-.345-4.41zm-13.95 1.27h-1.448v7.175h-1.344v-7.174H9.49v-1.178h4.213v1.178zm3.653 7.18h-1.21v-.68c-.479.515-.936.764-1.384.764-.387 0-.659-.149-.78-.462-.064-.19-.107-.487-.107-.925v-4.923h1.206v4.582c0 .265 0 .401.013.438.03.177.12.265.284.265.242 0 .496-.173.763-.527v-4.758h1.21v6.225h.005zm4.589-1.87c0 .575-.044.99-.121 1.254-.164.463-.487.7-.965.7-.431 0-.845-.221-1.25-.687v.602h-1.206v-8.352h1.206v2.73c.392-.45.806-.676 1.25-.676.482 0 .806.237.965.704.082.249.12.663.12 1.25v2.475zm4.562-1.04h-2.417v1.1c0 .576.203.865.616.865.298 0 .47-.153.539-.45.013-.06.026-.314.026-.764h1.232v.165c0 .362-.013.615-.026.727a1.59 1.59 0 0 1-.284.676c-.336.45-.832.675-1.46.675-.634 0-1.117-.213-1.466-.64-.258-.309-.387-.803-.387-1.462v-2.179c0-.663.116-1.15.374-1.467.35-.426.832-.639 1.448-.639.608 0 1.09.213 1.426.64.254.313.375.8.375 1.466v1.286h.004z"/></g></g></svg>
